<svg width="121" height="57" viewBox="0 0 121 57" fill="none" xmlns="http://www.w3.org/2000/svg">
<g filter="url(#filter0_d)">
<path d="M25.31 39H20.41L9.315 22.235V39H4.415V14.535H9.315L20.41 31.335V14.535H25.31V39ZM45.0623 24.44V28.57H30.2223V24.44H45.0623ZM55.4576 22.41C56.0876 21.5233 56.9509 20.7883 58.0476 20.205C59.1676 19.5983 60.4392 19.295 61.8626 19.295C63.5192 19.295 65.0126 19.7033 66.3426 20.52C67.6959 21.3367 68.7576 22.5033 69.5276 24.02C70.3209 25.5133 70.7176 27.2517 70.7176 29.235C70.7176 31.2183 70.3209 32.98 69.5276 34.52C68.7576 36.0367 67.6959 37.215 66.3426 38.055C65.0126 38.895 63.5192 39.315 61.8626 39.315C60.4392 39.315 59.1792 39.0233 58.0826 38.44C57.0092 37.8567 56.1342 37.1217 55.4576 36.235V48.24H50.5576V19.61H55.4576V22.41ZM65.7126 29.235C65.7126 28.0683 65.4676 27.065 64.9776 26.225C64.5109 25.3617 63.8809 24.7083 63.0876 24.265C62.3176 23.8217 61.4776 23.6 60.5676 23.6C59.6809 23.6 58.8409 23.8333 58.0476 24.3C57.2776 24.7433 56.6476 25.3967 56.1576 26.26C55.6909 27.1233 55.4576 28.1383 55.4576 29.305C55.4576 30.4717 55.6909 31.4867 56.1576 32.35C56.6476 33.2133 57.2776 33.8783 58.0476 34.345C58.8409 34.7883 59.6809 35.01 60.5676 35.01C61.4776 35.01 62.3176 34.7767 63.0876 34.31C63.8809 33.8433 64.5109 33.1783 64.9776 32.315C65.4676 31.4517 65.7126 30.425 65.7126 29.235ZM73.0183 29.235C73.0183 27.275 73.4033 25.5367 74.1733 24.02C74.9666 22.5033 76.0283 21.3367 77.3583 20.52C78.7116 19.7033 80.2166 19.295 81.8733 19.295C83.3199 19.295 84.5799 19.5867 85.6533 20.17C86.7499 20.7533 87.6249 21.4883 88.2783 22.375V19.61H93.2133V39H88.2783V36.165C87.6483 37.075 86.7733 37.8333 85.6533 38.44C84.5566 39.0233 83.2849 39.315 81.8383 39.315C80.2049 39.315 78.7116 38.895 77.3583 38.055C76.0283 37.215 74.9666 36.0367 74.1733 34.52C73.4033 32.98 73.0183 31.2183 73.0183 29.235ZM88.2783 29.305C88.2783 28.115 88.0449 27.1 87.5783 26.26C87.1116 25.3967 86.4816 24.7433 85.6883 24.3C84.8949 23.8333 84.0433 23.6 83.1333 23.6C82.2233 23.6 81.3833 23.8217 80.6133 24.265C79.8433 24.7083 79.2133 25.3617 78.7233 26.225C78.2566 27.065 78.0233 28.0683 78.0233 29.235C78.0233 30.4017 78.2566 31.4283 78.7233 32.315C79.2133 33.1783 79.8433 33.8433 80.6133 34.31C81.4066 34.7767 82.2466 35.01 83.1333 35.01C84.0433 35.01 84.8949 34.7883 85.6883 34.345C86.4816 33.8783 87.1116 33.225 87.5783 32.385C88.0449 31.5217 88.2783 30.495 88.2783 29.305ZM116.549 19.61L104.544 48.17H99.329L103.529 38.51L95.759 19.61H101.254L106.259 33.155L111.334 19.61H116.549Z" fill="#2D2D2D"/>
</g>
<defs>
<filter id="filter0_d" x="0.415039" y="14.535" width="120.134" height="41.705" filterUnits="userSpaceOnUse" color-interpolation-filters="sRGB">
<feFlood flood-opacity="0" result="BackgroundImageFix"/>
<feColorMatrix in="SourceAlpha" type="matrix" values="0 0 0 0 0 0 0 0 0 0 0 0 0 0 0 0 0 0 127 0"/>
<feOffset dy="4"/>
<feGaussianBlur stdDeviation="2"/>
<feColorMatrix type="matrix" values="0 0 0 0 0 0 0 0 0 0 0 0 0 0 0 0 0 0 0.25 0"/>
<feBlend mode="normal" in2="BackgroundImageFix" result="effect1_dropShadow"/>
<feBlend mode="normal" in="SourceGraphic" in2="effect1_dropShadow" result="shape"/>
</filter>
</defs>
</svg>
